<?xml version="1.0" standalone="no"?>
<!DOCTYPE svg PUBLIC "-//W3C//DTD SVG 20010904//EN"
 "http://www.w3.org/TR/2001/REC-SVG-20010904/DTD/svg10.dtd">
<svg version="1.0" xmlns="http://www.w3.org/2000/svg"
 width="100%" height="100%" viewBox="0 0 1980.000000 150.000000"
 preserveAspectRatio="xMidYMid meet">

<g transform="translate(0.000000,150.000000) scale(0.100000,-0.100000)"
fill="#ffffff" stroke="none">
<path d="M40 1490 c8 -5 23 -7 33 -4 9 3 17 1 17 -4 0 -16 554 -146 1050 -247
1869 -378 3988 -631 6175 -734 867 -42 1085 -46 2305 -46 1184 0 1411 4 2215
41 2540 115 5104 427 7555 919 151 30 278 55 283 55 4 0 7 7 7 15 0 13 -1096
15 -9827 15 -6288 0 -9823 -4 -9813 -10z"/>
</g>
</svg>
