<?xml version="1.0" standalone="no"?>
<!DOCTYPE svg PUBLIC "-//W3C//DTD SVG 20010904//EN"
 "http://www.w3.org/TR/2001/REC-SVG-20010904/DTD/svg10.dtd">
<svg version="1.0" xmlns="http://www.w3.org/2000/svg"
 width="100%" height="100%" viewBox="0 0 1980.000000 150.000000"
 preserveAspectRatio="xMidYMid meet">

<g transform="translate(0.000000,150.000000) scale(0.100000,-0.100000)"
fill="#131313" stroke="none">
<path d="M9110 1044 c-587 -17 -865 -27 -1145 -40 -2528 -114 -5023 -416
-7485 -905 -195 -39 -356 -72 -358 -74 -2 -2 -1 -8 3 -14 4 -8 2873 -11 9796
-11 8439 0 9789 2 9789 14 0 30 -854 220 -1620 361 -1932 356 -3941 564 -6325
656 -261 10 -2398 20 -2655 13z"/>
<path d="M19740 10 c8 -5 20 -10 25 -10 6 0 3 5 -5 10 -8 5 -19 10 -25 10 -5
0 -3 -5 5 -10z"/>
</g>
</svg>
